<svg width="438" height="537" viewBox="0 0 438 537" fill="none" xmlns="http://www.w3.org/2000/svg">
<path d="M183.331 528.704L401.919 427.072C437.378 410.585 447.035 383.148 429.273 344.946L352.484 179.792C336.888 146.248 313.76 134.338 284.033 143.627L258.256 88.1871C218.292 2.23232 140.684 -15.7935 76.9972 13.8176C13.3105 43.4288 -22.9247 114.386 17.04 200.341L42.8167 255.78C16.5554 272.523 10.5229 297.992 26.1189 331.535L102.907 496.69C120.669 534.892 147.872 545.191 183.331 528.704ZM58.7148 175.865C33.263 121.124 54.6259 74.9292 96.3839 55.5138C137.909 36.2069 187.231 49.5364 212.683 104.277L239.976 162.978L86.0077 234.566L58.7148 175.865Z" fill="#ECECEC"/>
</svg>
